<?xml version="1.0" standalone="no"?>
<!DOCTYPE svg PUBLIC "-//W3C//DTD SVG 20010904//EN"
 "http://www.w3.org/TR/2001/REC-SVG-20010904/DTD/svg10.dtd">
<svg version="1.0" xmlns="http://www.w3.org/2000/svg"
 width="1026.000000pt" height="1026.000000pt" viewBox="0 0 1026.000000 1026.000000"
 preserveAspectRatio="xMidYMid meet">
<metadata>
Created by potrace 1.11, written by Peter Selinger 2001-2013
</metadata>
<g transform="translate(0.000000,1026.000000) scale(0.100000,-0.100000)"
fill="#000000" stroke="none">
<path d="M3484 10199 c310 -340 398 -755 295 -1379 -27 -164 -60 -312 -163
-735 -135 -559 -172 -767 -183 -1040 -22 -588 185 -1003 663 -1326 190 -128
518 -277 787 -357 l67 -20 -45 50 c-101 113 -195 279 -249 439 -78 235 -91
539 -36 878 32 196 81 399 209 873 241 891 294 1146 307 1473 28 693 -311
1054 -1104 1176 -95 14 -208 22 -372 26 l-234 6 58 -64z"/>
<path d="M7526 9849 c-21 -362 -150 -625 -447 -914 -193 -187 -381 -323 -889
-640 -536 -334 -728 -474 -930 -675 -244 -243 -368 -455 -436 -745 -29 -123
-27 -440 4 -592 30 -148 73 -291 133 -443 63 -156 209 -451 220 -444 5 3 9 29
9 58 0 30 7 91 16 137 85 450 364 789 959 1170 66 42 293 179 505 304 813 480
1042 636 1275 870 212 211 313 396 346 631 50 353 -170 793 -632 1268 l-126
130 -7 -115z"/>
<path d="M1340 8265 c-164 -31 -364 -119 -550 -242 -143 -95 -257 -188 -438
-356 l-153 -142 113 -7 c358 -24 601 -140 884 -422 209 -209 337 -388 674
-936 90 -146 196 -317 238 -380 403 -620 775 -922 1225 -995 117 -19 344 -19
469 0 251 38 513 127 817 278 l164 82 -84 7 c-314 24 -586 151 -833 388 -226
218 -371 420 -676 945 -548 943 -722 1205 -955 1439 -180 181 -337 280 -525
332 -80 22 -278 27 -370 9z"/>
<path d="M10236 6807 c-13 -27 -186 -167 -262 -213 -213 -126 -429 -178 -729
-177 -289 2 -485 34 -1100 178 -683 160 -860 188 -1170 189 -281 0 -465 -36
-660 -128 -365 -172 -637 -502 -843 -1022 -43 -107 -125 -354 -120 -359 2 -2
28 17 58 42 132 111 306 205 466 252 154 45 240 55 454 55 320 0 521 -37 1210
-219 953 -252 1231 -306 1580 -306 298 0 506 62 682 202 292 232 455 716 446
1329 -2 120 -6 188 -12 177z"/>
<path d="M6455 5469 c-274 -33 -660 -165 -947 -323 l-83 -46 46 0 c77 0 229
-30 339 -66 204 -68 367 -173 551 -354 230 -229 355 -410 749 -1095 460 -800
641 -1068 877 -1296 113 -111 214 -184 328 -239 130 -63 195 -80 335 -87 290
-14 602 115 955 396 106 85 385 340 385 352 0 5 -40 9 -89 9 -234 0 -477 83
-696 238 -105 75 -298 269 -407 409 -116 150 -257 366 -478 728 -101 165 -219
354 -263 420 -380 569 -714 843 -1142 936 -107 23 -343 32 -460 18z"/>
<path d="M980 5074 c-431 -53 -702 -281 -846 -711 -72 -214 -109 -465 -121
-813 l-6 -205 82 77 c369 342 838 417 1611 257 80 -17 289 -64 465 -105 514
-120 691 -153 960 -175 239 -20 481 4 675 67 493 158 842 584 1079 1316 23 70
41 130 41 133 0 4 -26 -16 -58 -43 -334 -287 -761 -377 -1340 -282 -180 30
-403 81 -797 184 -943 248 -1181 295 -1520 301 -104 2 -206 1 -225 -1z"/>
<path d="M5400 4799 c177 -205 277 -429 316 -706 12 -91 15 -161 11 -308 -9
-295 -39 -473 -182 -1090 -212 -911 -253 -1137 -262 -1455 -9 -296 18 -461
107 -645 155 -320 480 -505 1005 -569 156 -19 448 -31 556 -22 l84 7 -82 85
c-327 337 -416 766 -307 1470 13 89 52 294 85 455 115 561 149 757 169 984 58
688 -144 1153 -650 1489 -199 133 -511 268 -800 347 -41 11 -84 23 -94 26 -12
3 5 -23 44 -68z"/>
<path d="M5140 4790 c-1 -132 -53 -335 -125 -485 -114 -237 -283 -426 -582
-649 -164 -122 -285 -197 -768 -474 -879 -503 -1124 -668 -1361 -915 -164
-169 -257 -330 -300 -515 -20 -86 -20 -265 1 -361 49 -230 183 -484 398 -751
83 -103 311 -352 328 -358 5 -2 9 30 9 71 0 369 187 723 539 1021 192 162 340
263 791 536 366 222 566 351 705 455 432 325 655 646 720 1034 24 140 17 411
-14 559 -54 255 -180 592 -310 822 l-31 55 0 -45z"/>
</g>
</svg>
